Format;Avi

File Size:930mb

Video: ID : 0
Format : MPEG-4 Visual
Format profile : Simple@L3
Format settings, BVOP : No
Format settings, QPel : No
Format settings, GMC : No warppoints
Format settings, Matrix : Default (H.263)
Codec ID : XVID
Codec ID/Hint : XviD
Duration : 1h 28mn
Bit rate : 1 273 Kbps
Width : 720 pixels
Height : 400 pixels
Display aspect ratio : 16:9
Frame rate : 29.970 fps
Color space : YUV
Chroma subsampling : 4:2:0
Bit depth : 8 bits
Scan type : Progressive
Bits/(Pixel*Frame) : 0.147
Stream size : 807 MiB (86%)
Writing library : XviD 1.2.1 (UTC 2008-12-04)

Audio: ID : 1
Format : AC-3
Format/Info : Audio Coding 3
Mode extension : CM (complete main)
Codec ID : 2000
Duration : 1h 27mn
Bit rate mode : Constant
Bit rate : 192 Kbps
Channel(s) : 2 channels
Channel positions : Front: L R
Sampling rate : 48.0 KHz
Bit depth : 16 bits
Stream size : 120 MiB (13%)
Alignment : Aligned on interleaves
Interleave, duration : 34 ms (1.01 video frame)
Interleave, preload duration : 512 ms

Duration:1:24

Release Date:2010

Language:English